<svg width="605" height="495" viewBox="0 0 605 495" fill="none" xmlns="http://www.w3.org/2000/svg">
<path fill-rule="evenodd" clip-rule="evenodd" d="M399.352 464.954C276.094 452.421 174.073 362.113 129.37 247C84.6671 131.887 252.974 33.8284 374.198 28.2104C495.421 22.5924 589 130.297 589 252.974C589 375.651 522.611 477.487 399.352 464.954Z" fill="#FFE5D2"/>
<path fill-rule="evenodd" clip-rule="evenodd" d="M482.001 343.693C482.102 343.634 482.73 344.464 483.66 346.098C484.593 347.726 485.754 350.2 486.833 353.391C489.045 359.752 490.433 369.142 489.61 379.382C488.794 389.621 486.427 398.609 484.601 405.006C482.733 411.407 481.358 415.292 481.121 415.226C480.859 415.154 481.787 411.134 483.32 404.671C484.814 398.209 486.945 389.269 487.743 379.24C488.546 369.214 487.404 360.088 485.569 353.779C483.786 347.439 481.707 343.846 482.001 343.693Z" fill="white"/>
<path fill-rule="evenodd" clip-rule="evenodd" d="M488.31 292.449C488.427 292.397 489.188 293.789 490.456 296.354C491.723 298.92 493.504 302.659 495.611 307.325C499.79 316.656 505.415 329.719 509.495 344.883C511.5 352.469 512.867 359.844 513.559 366.616C514.257 373.387 514.328 379.539 513.979 384.674C513.641 389.811 512.992 393.933 512.368 396.736C511.751 399.544 511.262 401.057 511.152 401.032C510.805 400.965 512.333 394.783 512.657 384.612C513.061 374.462 511.728 360.36 507.685 345.366C503.652 330.366 498.257 317.297 494.395 307.85C492.451 303.123 490.879 299.296 489.79 296.652C488.727 293.996 488.191 292.502 488.31 292.449Z" fill="white"/>
<path fill-rule="evenodd" clip-rule="evenodd" d="M254.833 352.594C255.05 352.827 252.927 354.852 250.172 358.612C249.488 359.556 248.745 360.589 248.05 361.769C247.29 362.905 246.629 364.209 245.893 365.556C244.525 368.3 243.227 371.419 242.225 374.815C241.267 378.223 240.709 381.554 240.407 384.607C240.316 386.137 240.183 387.594 240.221 388.959C240.183 390.328 240.262 391.6 240.338 392.763C240.672 397.411 241.394 400.255 241.086 400.338C240.899 400.402 239.711 397.655 239.022 392.898C238.857 391.71 238.699 390.405 238.669 388.992C238.563 387.58 238.639 386.07 238.687 384.48C238.902 381.31 239.43 377.834 240.427 374.297C241.465 370.77 242.864 367.546 244.37 364.748C245.174 363.374 245.911 362.055 246.753 360.917C247.529 359.736 248.358 358.714 249.13 357.795C252.243 354.134 254.711 352.442 254.833 352.594Z" fill="white"/>
<path fill-rule="evenodd" clip-rule="evenodd" d="M259.816 369C259.973 369.251 258.79 370.156 257.245 371.886C256.463 372.741 255.638 373.849 254.828 375.132C254.051 376.438 253.307 377.935 252.722 379.587C252.164 381.246 251.827 382.884 251.635 384.393C251.481 385.903 251.447 387.282 251.537 388.438C251.687 390.752 252.062 392.195 251.782 392.296C251.582 392.381 250.74 391.06 250.225 388.614C249.956 387.395 249.846 385.901 249.915 384.247C250.024 382.598 250.341 380.79 250.952 378.976C251.589 377.171 252.455 375.553 253.386 374.187C254.349 372.84 255.358 371.734 256.32 370.939C258.233 369.329 259.71 368.808 259.816 369Z" fill="white"/>
<path fill-rule="evenodd" clip-rule="evenodd" d="M190.645 216.107C190.742 216.022 191.58 216.847 193.017 218.419C193.748 219.197 194.61 220.177 195.523 221.386C196.446 222.583 197.555 223.913 198.596 225.512C199.133 226.301 199.697 227.127 200.283 227.988C200.863 228.854 201.389 229.803 201.975 230.761C203.174 232.663 204.249 234.81 205.418 237.051C207.626 241.595 209.737 246.753 211.418 252.343C213.045 257.951 214.078 263.429 214.695 268.442C214.931 270.958 215.195 273.346 215.222 275.593C215.251 276.716 215.325 277.798 215.308 278.841C215.285 279.882 215.261 280.881 215.239 281.835C215.233 283.745 215.025 285.462 214.902 286.971C214.792 288.481 214.601 289.771 214.41 290.82C214.059 292.923 213.804 294.07 213.676 294.052C213.346 294.009 213.967 289.35 213.916 281.821C213.898 280.88 213.882 279.896 213.864 278.869C213.842 277.843 213.733 276.777 213.672 275.675C213.579 273.466 213.26 271.123 212.984 268.656C212.282 263.741 211.219 258.379 209.622 252.875C207.971 247.388 205.95 242.308 203.866 237.8C202.759 235.579 201.752 233.44 200.63 231.535C200.081 230.575 199.593 229.623 199.055 228.749C198.511 227.879 197.991 227.042 197.493 226.244C193.445 219.895 190.39 216.324 190.645 216.107Z" fill="white"/>
<path fill-rule="evenodd" clip-rule="evenodd" d="M211.845 224.878C212.004 224.736 214.154 226.748 216.889 230.624C218.265 232.554 219.715 234.986 221.127 237.79C222.497 240.614 223.806 243.82 224.849 247.295C225.862 250.779 226.505 254.183 226.889 257.298C227.227 260.42 227.332 263.249 227.224 265.617C227.035 270.356 226.322 273.214 226.112 273.181C225.811 273.144 226.053 270.251 225.9 265.616C225.839 263.299 225.6 260.548 225.179 257.523C224.712 254.503 224.036 251.211 223.055 247.826C222.04 244.451 220.817 241.32 219.569 238.532C218.279 235.761 216.984 233.324 215.777 231.344C213.386 227.37 211.613 225.073 211.845 224.878Z" fill="white"/>
<path fill-rule="evenodd" clip-rule="evenodd" d="M137.611 378.076L135.981 374.748L90.6116 409.414L110.405 441.479L155.567 403.4L137.611 378.076Z" fill="#FF7B5B"/>
<path fill-rule="evenodd" clip-rule="evenodd" d="M92.5129 410.155L109.901 440.225L111.013 439.729L95.5283 411.613L92.5129 410.155Z" fill="#D7D4D4"/>
<path fill-rule="evenodd" clip-rule="evenodd" d="M136.715 377.417L92.5129 410.154C92.5129 410.154 92.6982 410.857 93.7951 411.291C94.8934 411.724 95.5283 411.614 95.5283 411.614L141.999 379.808C141.999 379.808 139.32 379.186 138.348 378.461C137.376 377.733 136.715 377.417 136.715 377.417Z" fill="#F5F3F3"/>
<path fill-rule="evenodd" clip-rule="evenodd" d="M143.135 378.525L94.6984 410.878L110.43 440.693L112.964 444.822L161.402 408.972C161.402 408.972 156.301 401.358 153.238 396.76C150.174 392.163 144.161 381.32 143.834 380.625C143.506 379.93 143.135 378.525 143.135 378.525Z" fill="#FF7B5B"/>
<path fill-rule="evenodd" clip-rule="evenodd" d="M542.58 155.165L543.948 152.371L582.046 181.481L565.425 208.408L527.501 176.431L542.58 155.165Z" fill="#775298"/>
<path fill-rule="evenodd" clip-rule="evenodd" d="M580.45 182.103L565.85 207.354L564.915 206.938L577.918 183.328L580.45 182.103Z" fill="#D7D4D4"/>
<path fill-rule="evenodd" clip-rule="evenodd" d="M543.333 154.611L580.45 182.102C580.45 182.102 580.294 182.692 579.374 183.056C578.451 183.42 577.917 183.327 577.917 183.327L538.895 156.62C538.895 156.62 541.144 156.098 541.961 155.487C542.777 154.877 543.333 154.611 543.333 154.611Z" fill="#F5F3F3"/>
<path fill-rule="evenodd" clip-rule="evenodd" d="M537.941 155.543L578.615 182.71L565.406 207.747L563.277 211.214L522.601 181.109C522.601 181.109 526.886 174.714 529.457 170.854C532.031 166.994 537.08 157.888 537.354 157.305C537.629 156.723 537.941 155.543 537.941 155.543Z" fill="#775298"/>
<path fill-rule="evenodd" clip-rule="evenodd" d="M83.4451 102.772C83.4451 102.772 80.5686 104.762 82.0061 108.082C83.4451 111.401 89.7512 121.248 98.2703 120.915C98.6191 120.903 87.5383 102.772 87.5383 102.772H83.4451Z" fill="#FF7B5B"/>
<path fill-rule="evenodd" clip-rule="evenodd" d="M70.4131 284.293C70.4131 284.293 59.7601 274.777 56.3495 276.481C52.1827 278.565 28.3328 301.933 29.2649 312.941C29.6478 317.45 34.8966 313.587 44.2495 303.885C53.6052 294.185 65.385 298.342 65.385 298.342L70.4131 284.293Z" fill="#775298"/>
<path fill-rule="evenodd" clip-rule="evenodd" d="M96.2953 300.343L83.435 292.627C83.435 292.627 50.1 323.88 55.308 328.046C59.2582 331.206 61.5801 328.372 70.9344 318.67C80.2874 308.971 92.138 314.548 92.138 314.548L96.2953 300.343Z" fill="#775298"/>
<path fill-rule="evenodd" clip-rule="evenodd" d="M174.854 197.525L177.266 231.771L123.731 217.824L174.854 197.525Z" fill="#F3A683"/>
<path fill-rule="evenodd" clip-rule="evenodd" d="M123.731 219.002C123.731 219.002 170.559 221.954 176.794 219.873C176.794 219.873 185.945 309.776 169.662 319.475C153.378 329.177 116.835 314.972 116.835 314.972L126.702 295.57L147.975 294.185V259.54L146.449 259.886L123.731 219.002Z" fill="#112129"/>
<path fill-rule="evenodd" clip-rule="evenodd" d="M65.0318 280.326C65.0318 280.326 53.2534 285.177 57.0646 296.957C57.0646 296.957 97.2713 328.485 116.836 321.208C127.797 317.133 139.571 286.035 147.808 259.466L176.795 219.873C176.795 219.873 163.124 220.557 158.563 220.539C149.846 220.507 123.732 219.002 123.732 219.002C123.732 219.002 110.091 290.375 105.23 292.106C100.37 293.837 65.0318 280.326 65.0318 280.326Z" fill="#22343D"/>
<path fill-rule="evenodd" clip-rule="evenodd" d="M134.644 129.486C134.644 129.486 162.708 103.155 167.557 96.2242C172.407 89.2952 182.804 66.0827 195.619 56.382L189.384 43.2162C189.384 43.2162 193.196 41.1382 195.619 46.6801C195.619 46.6801 204.626 28.666 206.705 29.0107C208.786 29.3569 202.549 42.8701 202.549 42.8701C202.549 42.8701 211.213 30.3965 213.637 30.744C216.06 31.0901 207.4 44.7656 207.4 44.7656C207.4 44.7656 217.099 33.5156 218.486 34.9014C219.872 36.2872 210.864 44.7656 210.864 44.7656C210.864 44.7656 220.564 39.1965 221.604 41.0319C222.644 42.8701 211.904 47.7198 211.904 47.7198C211.904 47.7198 210.864 55.6885 204.283 59.1523C204.283 59.1523 191.249 94.3656 179.469 105.798L141.628 145.127L134.644 129.486Z" fill="#FFC6B2"/>
<path fill-rule="evenodd" clip-rule="evenodd" d="M101.143 143.133C101.143 143.133 74.5516 170.95 67.5777 175.734C60.6025 180.517 37.295 190.697 27.476 203.424L14.3691 197.065C14.3691 197.065 12.2557 200.856 17.7756 203.332C17.7756 203.332 -0.323974 212.171 0.00441516 214.255C0.33008 216.337 13.9003 210.227 13.9003 210.227C13.9003 210.227 1.34659 218.773 1.67089 221.2C1.99519 223.627 15.7494 215.094 15.7494 215.094C15.7494 215.094 4.40974 224.688 5.78326 226.086C7.15404 227.486 15.7181 218.559 15.7181 218.559C15.7181 218.559 10.0578 228.207 11.8864 229.263C13.7123 230.319 18.6627 219.625 18.6627 219.625C18.6627 219.625 26.6394 218.663 30.1672 212.111C30.1672 212.111 63.5199 198.84 75.0639 187.168L116.569 157.758L101.143 143.133Z" fill="#FFC6B2"/>
<path fill-rule="evenodd" clip-rule="evenodd" d="M111.112 132.046L97.6628 145.212L101.073 160.054C101.073 160.054 114.324 191.865 116.327 199.625C119.44 211.693 114.404 230.092 114.404 230.092C114.404 230.092 136.867 228.227 157.306 227.535C177.744 226.841 184.43 220.257 184.43 220.257C184.43 220.257 166.709 161.235 154.474 144.737C142.238 128.241 137.788 123.076 137.788 123.076L119.773 127.014L111.112 132.046Z" fill="white"/>
<path fill-rule="evenodd" clip-rule="evenodd" d="M150.582 142.791L164.595 133.837C164.595 133.837 166.736 124.244 149.837 112.929L130.021 125.347L150.582 142.791Z" fill="white"/>
<path fill-rule="evenodd" clip-rule="evenodd" d="M100.497 144.171C92.8145 145.249 78.7755 164.72 77.2099 164.683C77.2099 164.683 87.0902 180.807 94.9171 181.33C94.9171 181.33 129.36 140.123 100.497 144.171Z" fill="white"/>
<path fill-rule="evenodd" clip-rule="evenodd" d="M127.616 131.502C127.616 131.502 116.449 123.159 116.836 119.833C116.934 118.995 118.482 117.635 118.884 116.427C121.049 109.932 110.61 93.1944 104.196 89.6665C99.1506 86.8922 101.362 86.6469 90.7432 92.9573C80.1244 99.2676 86.1744 110.18 90.9163 115.824C95.3993 121.158 100.534 123.444 105.153 123.829L111.721 138.418L127.616 131.502Z" fill="#FFC6B2"/>
<path fill-rule="evenodd" clip-rule="evenodd" d="M107.466 143.084C105.354 137.903 109.354 131.378 116.4 128.504C123.449 125.629 130.871 127.498 132.987 132.676C135.098 137.856 128.006 145.642 124.048 147.256C120.09 148.871 109.577 148.262 107.466 143.084Z" fill="#FFC6B2"/>
<path fill-rule="evenodd" clip-rule="evenodd" d="M90.9168 115.824C90.9168 115.824 87.295 115.623 86.893 118.037C86.4897 120.451 93.5317 120.451 96.1479 118.64L90.9168 115.824Z" fill="#FFC6B2"/>
<path fill-rule="evenodd" clip-rule="evenodd" d="M92.7279 118.037C92.0398 113.675 87.3919 110.432 87.6236 106.182C89.8514 106.2 91.2822 103.44 90.2684 101.082C89.8691 100.155 89.1933 99.3619 88.7613 98.4476C88.3308 97.5346 88.2163 96.3382 88.8772 95.8218C89.1906 95.5779 89.6143 95.5356 90.0204 95.4948C93.3234 95.1555 98.9823 96.1461 102.022 95.0192C104.916 93.9468 108.018 91.8606 107.717 88.315C107.454 85.2273 104.727 82.7241 102.223 80.8328C100.788 79.7481 96.6877 76.9125 95.1411 77.17C92.7797 77.5625 92.2074 80.7129 92.0371 83.3496C90.3856 81.7771 87.9492 82.0292 86.513 83.3087C85.0768 84.5882 84.3969 86.6213 83.7715 88.5835C83.1447 90.547 82.4811 92.5855 81.0639 93.8896C79.7436 95.105 77.6547 96.0248 77.9286 98.0919C78.2542 100.556 81.4727 101.432 82.9607 103.533C82.5942 103.018 82.2835 106.307 82.4947 106.865C83.1297 108.545 84.7144 109.657 85.8603 110.942C88.3008 113.681 89.4944 116.438 92.7279 118.037Z" fill="#FF7B5B"/>
<path fill-rule="evenodd" clip-rule="evenodd" d="M112.961 108.063L104.709 112.331C104.709 112.331 114.62 119.526 112.961 108.063Z" fill="white"/>
<path fill-rule="evenodd" clip-rule="evenodd" d="M101.608 109.755C102.059 110.611 101.391 111.848 100.117 112.519C98.8433 113.189 97.4453 113.039 96.9942 112.183C96.5446 111.328 97.2109 110.092 98.4849 109.42C99.7603 108.75 101.157 108.899 101.608 109.755Z" fill="#FFB2A0"/>
<path fill-rule="evenodd" clip-rule="evenodd" d="M113.657 101.524C114.108 102.38 113.441 103.617 112.167 104.288C110.893 104.958 109.495 104.808 109.044 103.952C108.594 103.097 109.26 101.859 110.534 101.189C111.81 100.519 113.206 100.668 113.657 101.524Z" fill="#FFB2A0"/>
<path fill-rule="evenodd" clip-rule="evenodd" d="M107.2 107.761C107.162 107.713 107.316 107.51 107.673 107.252C108.014 106.989 108.607 106.706 109.047 106.232C109.483 105.772 109.639 104.815 108.972 104.68C108.278 104.444 107.491 105.24 106.587 105.996C106.364 106.181 106.143 106.365 105.924 106.546C105.719 106.734 105.289 107.01 104.842 106.954C103.99 106.816 103.628 106.248 103.301 105.868C102.646 105.028 102.243 104.15 102.02 103.389C101.577 101.852 101.776 100.86 101.882 100.868C102.031 100.862 102.08 101.815 102.642 103.167C102.926 103.839 103.35 104.602 103.967 105.323C104.268 105.688 104.647 106.029 104.917 106.04C105.03 106.045 105.118 106.007 105.331 105.828C105.547 105.647 105.766 105.463 105.986 105.278C106.441 104.91 106.835 104.538 107.356 104.192C107.861 103.851 108.582 103.636 109.228 103.855C109.917 104.036 110.322 104.84 110.202 105.399C110.125 105.969 109.841 106.388 109.52 106.695C108.84 107.263 108.232 107.401 107.849 107.573C107.457 107.721 107.241 107.814 107.2 107.761Z" fill="#FF7B5B"/>
<path fill-rule="evenodd" clip-rule="evenodd" d="M105.153 123.829C105.153 123.829 110.417 123.859 113.273 122.1C113.273 122.1 110.857 125.068 106.022 125.836L105.153 123.829Z" fill="#FFA192"/>
<path fill-rule="evenodd" clip-rule="evenodd" d="M107.436 100.223C107.388 100.484 106.652 100.564 105.874 100.907C105.085 101.226 104.516 101.699 104.296 101.552C104.072 101.433 104.444 100.493 105.509 100.045C106.573 99.5938 107.505 99.9781 107.436 100.223Z" fill="#22343D"/>
<path fill-rule="evenodd" clip-rule="evenodd" d="M97.1204 106.99C96.9215 106.843 97.2335 105.995 97.9911 105.146C98.7583 104.28 99.738 103.991 99.8415 104.233C99.9506 104.469 99.3537 105.018 98.682 105.78C97.9993 106.539 97.3357 107.151 97.1204 106.99Z" fill="#22343D"/>
<path fill-rule="evenodd" clip-rule="evenodd" d="M93.1217 105.682C92.6952 105.366 92.3627 104.013 93.9951 102.19C95.6425 100.325 97.4834 100.654 97.7041 101.172C97.9412 101.68 97.3281 102.403 95.8823 104.043C94.4148 105.677 93.5836 106.028 93.1217 105.682Z" fill="#FF7B5B"/>
<path fill-rule="evenodd" clip-rule="evenodd" d="M101.787 98.5002C101.551 98.0587 101.812 96.7737 103.935 95.8784C106.088 94.9532 107.522 95.9738 107.502 96.5039C107.498 97.0312 106.687 97.4005 104.796 98.2154C102.891 99.0152 102.042 98.9812 101.787 98.5002Z" fill="#FF7B5B"/>
<path fill-rule="evenodd" clip-rule="evenodd" d="M554.6 111.282C554.739 111.42 552.452 113.992 547.707 116.794C543.021 119.593 535.648 122.367 527.167 122.43C518.687 122.493 511.273 119.827 506.546 117.098C501.762 114.367 499.437 111.827 499.573 111.687C499.771 111.437 502.371 113.58 507.162 115.925C511.906 118.279 519.057 120.616 527.152 120.558C535.25 120.496 542.365 118.054 547.075 115.63C551.829 113.214 554.399 111.034 554.6 111.282Z" fill="#775298"/>
<path fill-rule="evenodd" clip-rule="evenodd" d="M502.86 107.396C502.731 107.681 500.199 106.63 495.934 105.679C493.808 105.177 491.229 104.79 488.357 104.433C485.473 104.115 482.286 103.861 478.92 103.621C475.553 103.386 472.331 103.114 469.404 102.752C466.477 102.364 463.847 101.902 461.681 101.316C457.331 100.181 454.868 98.8371 454.953 98.6477C455.067 98.3616 457.657 99.2459 461.964 100.021C464.113 100.431 466.706 100.749 469.593 101.036C472.488 101.301 475.684 101.517 479.055 101.755C482.429 101.994 485.657 102.304 488.581 102.723C491.504 103.183 494.126 103.717 496.271 104.398C500.578 105.713 502.957 107.217 502.86 107.396Z" fill="#775298"/>
<mask id="mask0_0_574" style="mask-type:alpha" maskUnits="userSpaceOnUse" x="434" y="35" width="171" height="84">
<path fill-rule="evenodd" clip-rule="evenodd" d="M434.468 35.2054H604.354V118.441H434.468V35.2054Z" fill="white"/>
</mask>
<g mask="url(#mask0_0_574)">
<path fill-rule="evenodd" clip-rule="evenodd" d="M451.556 52.0647C459.642 50.3491 468.019 51.8262 476.172 53.1848C484.325 54.5433 492.79 55.7683 500.761 53.58C515.153 49.6297 526.079 35.089 541.003 35.2061C547.149 35.2538 552.941 37.8783 558.928 39.2668C566.363 40.9919 574.108 40.8066 581.639 42.037C589.172 43.2675 596.952 46.2967 601.209 52.6316C606.259 60.1492 604.874 70.7533 599.575 78.0979C594.276 85.4439 585.79 89.916 577.095 92.4505C571.03 94.2179 564.568 95.2399 559.32 98.7568C554.011 102.315 550.544 108.04 545.598 112.086C533.186 122.236 513.87 119.327 501.049 109.699C497.828 107.28 494.842 104.473 491.223 102.703C476.503 95.4974 455.332 105.036 442.654 91.9259C429.78 78.6116 431.614 56.2943 451.556 52.0647Z" fill="#775298"/>
</g>
<path fill-rule="evenodd" clip-rule="evenodd" d="M447.516 309.916C447.516 309.916 461.003 338.824 462.581 333.472C464.155 328.117 463.634 315.26 462.79 313.425C461.941 311.589 456.428 303.48 456.428 303.48L447.516 309.916Z" fill="#FFB2A0"/>
<path fill-rule="evenodd" clip-rule="evenodd" d="M545.04 76.1511C546.288 77.7495 545.454 76.0325 546.867 78.3381C552.74 78.1337 556.682 73.1642 556.682 73.1642C556.682 73.1642 566.004 73.4108 565.896 71.7457C565.79 70.0778 556.96 70.7005 556.96 70.7005C556.96 70.7005 566.301 67.7668 565.789 66.3019C565.279 64.8385 554.495 69.5069 554.495 69.5069C554.495 69.5069 565.377 62.7523 563.769 61.669C562.163 60.5884 551.692 66.4845 551.692 66.4845C551.692 66.4845 560.792 59.0105 559.428 58.0471C558.067 57.0837 545.445 66.8116 545.445 66.8116C545.629 62.026 542.196 62.1936 542.196 62.1936L542.338 73.8782C542.338 73.8782 544.465 75.4153 545.04 76.1511Z" fill="#FFC6B2"/>
<path fill-rule="evenodd" clip-rule="evenodd" d="M406.866 23.2669C404.872 23.6349 406.418 22.9413 403.829 23.7316C399.577 19.6764 400.141 13.3033 400.141 13.3033C400.141 13.3033 393.009 7.29956 394.191 6.12633C395.381 4.95037 401.569 11.2785 401.569 11.2785C401.569 11.2785 396.534 2.88189 397.888 2.12699C399.241 1.37208 404.208 12.0225 404.208 12.0225C404.208 12.0225 400.553 -0.253542 402.475 0.00399624C404.393 0.261535 408.309 11.6205 408.309 11.6205C408.309 11.6205 406.467 -0.00826749 408.123 0.175689C409.781 0.358282 412.764 16.0136 412.764 16.0136C415.802 12.3127 418.257 14.7178 418.257 14.7178L410.554 23.1893C410.554 23.1893 407.784 23.0993 406.866 23.2669Z" fill="#FFC6B2"/>
<path fill-rule="evenodd" clip-rule="evenodd" d="M455.249 72.0751C452.67 71.6513 446.433 75.7965 443.313 82.5524C441.566 86.3337 440.364 90.175 442.369 96.3246C443.313 99.2175 445.289 99.5799 445.73 100.876C446.287 102.516 444.441 107.688 444.441 107.688L451.803 110.661C452.282 107.108 452.824 103.534 456.444 101.992C457.799 101.414 459.249 101.049 460.527 100.316C463.976 98.3386 465.818 94.0135 467.235 90.4721C468.292 87.8272 461.716 73.1352 455.249 72.0751Z" fill="#FFC6B2"/>
<path fill-rule="evenodd" clip-rule="evenodd" d="M446.485 172.478L434.151 167.529C434.151 167.529 397.546 235.412 397.698 254.246C397.85 273.079 447.973 310.787 447.973 310.787L456.427 303.481C456.427 303.481 440.952 276.497 432.679 266.983C424.406 257.466 446.485 172.478 446.485 172.478Z" fill="#FFB2A0"/>
<path fill-rule="evenodd" clip-rule="evenodd" d="M507.727 249.807C507.727 249.807 534.913 236.908 529.45 235.769C523.987 234.635 511.211 236.198 509.452 237.19C507.69 238.183 500.057 244.336 500.057 244.336L507.727 249.807Z" fill="#FFC6B2"/>
<path fill-rule="evenodd" clip-rule="evenodd" d="M458.601 171.89L439.89 178.697C439.89 178.697 421.173 261.022 428.318 273.947C435.461 286.877 455.528 278.321 484.108 262.723L508.046 249.655L500.056 244.337C500.056 244.337 472.2 249.796 464.377 255.238C464.377 255.238 468.46 243.671 473.903 227.342C479.346 211.012 483.1 194.343 458.601 171.89Z" fill="#FFC6B2"/>
<path fill-rule="evenodd" clip-rule="evenodd" d="M435.57 115.804C435.57 110.334 437.33 106.379 442.8 106.379C448.269 106.379 455.831 108.296 455.831 113.767C455.831 119.239 451.521 128.122 446.048 128.122C440.579 128.122 435.57 121.276 435.57 115.804Z" fill="#FFC6B2"/>
<path fill-rule="evenodd" clip-rule="evenodd" d="M439.889 105.595C439.889 105.595 422.881 87.1883 419.479 69.1565C416.075 51.1274 410.295 21.8702 410.295 21.8702L403.83 23.7316C403.83 23.7316 400.767 63.7155 403.83 69.8378C406.891 75.9615 421.851 116.729 426.406 127.435L439.889 105.595Z" fill="#FFC6B2"/>
<path fill-rule="evenodd" clip-rule="evenodd" d="M458.162 119.94C458.162 119.94 459.47 114.215 480.978 106.432C502.485 98.6518 543.061 73.4308 543.061 73.4308L547.109 78.0624C547.109 78.0624 525.062 103.529 512.236 107.995C499.41 112.464 472.167 130.076 469.364 131.485C465.125 133.617 465.177 136.3 458.162 119.94Z" fill="#FFC6B2"/>
<path fill-rule="evenodd" clip-rule="evenodd" d="M439.889 105.595C439.889 105.595 422.609 111.195 422.609 137.49C422.609 137.49 422.62 173.503 426.692 180.055C426.692 180.055 433.313 181.751 441.568 180.055C450.223 178.275 458.601 171.89 458.601 171.89L472.194 131.08L470.569 111.96L452.086 108.391C452.086 108.391 457.388 133.168 438.205 122.516C434.477 120.446 443.69 106.389 443.69 106.389L439.889 105.595Z" fill="#22343D"/>
<path fill-rule="evenodd" clip-rule="evenodd" d="M425.268 126.98L416.753 109.24C416.753 109.24 417.974 98.4781 433.606 94.6218C433.606 94.6218 435.186 100.046 436.919 102.119C438.651 104.19 443.696 106.395 443.696 106.395L425.268 126.98Z" fill="#22343D"/>
<path fill-rule="evenodd" clip-rule="evenodd" d="M457.459 134.111L484.536 128.561C484.536 128.561 489.244 118.807 478.081 107.204C478.081 107.204 456.961 108.48 454.227 108.707C451.536 108.931 453.384 111.004 453.384 111.004L457.459 134.111Z" fill="#22343D"/>
<path fill-rule="evenodd" clip-rule="evenodd" d="M426.649 171.283C426.649 171.283 401.039 218.633 396.808 227.094C396.808 227.094 472.363 261.801 503.034 220.024C503.034 220.024 485.588 183.097 458.616 169.039L446.981 165.554L427.104 171.055" fill="#22343D"/>
<path fill-rule="evenodd" clip-rule="evenodd" d="M466.243 90.0244C466.243 90.0244 469.161 87.107 470.955 89.1264C472.75 91.1458 464.449 94.0632 464.449 94.0632L466.243 90.0244Z" fill="#FFC6B2"/>
<path fill-rule="evenodd" clip-rule="evenodd" d="M519.606 50.2355C519.634 50.3364 518.507 50.8242 516.356 51.3352C514.21 51.8516 511.025 52.3204 507.069 52.4008C503.117 52.4798 498.416 52.1282 493.27 51.4306C488.121 50.7479 482.527 49.745 476.642 49.1032C470.767 48.475 465.117 48.3605 460.114 49.1686C455.109 49.963 450.777 51.6022 447.466 53.5168C444.155 55.4462 441.851 57.5869 440.436 59.2071C439.014 60.8287 438.373 61.8643 438.229 61.7771C438.15 61.7362 438.578 60.5698 439.867 58.752C441.148 56.9397 443.408 54.5483 446.779 52.3858C450.148 50.2369 454.625 48.3905 459.828 47.4666C465.037 46.5291 470.864 46.6014 476.841 47.2418C482.825 47.8945 488.425 48.9546 493.514 49.7232C498.602 50.5067 503.201 50.9863 507.074 51.0763C514.836 51.2929 519.535 49.9153 519.606 50.2355Z" fill="#775298"/>
<path fill-rule="evenodd" clip-rule="evenodd" d="M451.387 88.3681C451.379 88.4826 450.548 88.563 449.279 88.1419C448.966 88.0315 448.595 87.8871 448.25 87.571C448.08 87.4129 447.922 87.2031 447.825 86.951C447.686 86.5981 447.697 86.1974 447.835 85.8922C447.876 85.8309 447.873 85.6851 447.953 85.6824L448.2 85.6742C448.358 85.6524 448.545 85.7042 448.727 85.7382C449.062 85.8023 449.17 85.7927 449.409 85.8091C449.827 85.8186 450.26 85.775 450.693 85.6796C452.465 85.3063 453.65 84.0172 454.182 82.9571C454.739 81.8901 454.788 81.0875 454.937 81.0971C455.042 81.0835 455.249 81.9365 454.788 83.2242C454.554 83.8551 454.146 84.5786 453.488 85.2136C452.834 85.8472 451.928 86.3678 450.899 86.5926C450.386 86.7071 449.869 86.7507 449.372 86.7248C449.155 86.7139 448.814 86.6703 448.715 86.6485C448.624 86.6335 448.635 86.613 448.617 86.6239C448.606 86.6348 448.601 86.6526 448.602 86.6784C448.639 86.8011 448.705 86.9183 448.799 87.0232C448.989 87.2371 449.264 87.3966 449.533 87.5301C450.629 88.0683 451.407 88.2278 451.387 88.3681Z" fill="#FF7B5B"/>
<path fill-rule="evenodd" clip-rule="evenodd" d="M445.313 88.6836L455.288 92.6134C455.288 92.6134 446.522 98.6581 445.313 88.6836Z" fill="white"/>
<path fill-rule="evenodd" clip-rule="evenodd" d="M459.547 90.5746C459.193 91.2477 458.094 91.3649 457.093 90.8376C456.091 90.3116 455.567 89.3387 455.92 88.6669C456.274 87.9937 457.373 87.8752 458.375 88.4025C459.376 88.9299 459.901 89.9014 459.547 90.5746Z" fill="#FFB2A0"/>
<path fill-rule="evenodd" clip-rule="evenodd" d="M448.415 84.6721C448.112 85.3698 447.026 85.5715 445.988 85.1218C444.95 84.6721 444.352 83.7428 444.654 83.0452C444.955 82.3475 446.043 82.1458 447.081 82.5955C448.119 83.0452 448.717 83.9745 448.415 84.6721Z" fill="#FFB2A0"/>
<path fill-rule="evenodd" clip-rule="evenodd" d="M444.72 99.6226C444.72 99.6226 448.217 102.551 451.864 101.608C451.864 101.608 450.607 103.494 445.765 102.802C445.765 102.802 446.167 100.724 444.72 99.6226Z" fill="#FFA192"/>
<path fill-rule="evenodd" clip-rule="evenodd" d="M458.59 84.3102C458.59 84.7463 458.236 85.1006 457.8 85.1006C457.364 85.1006 457.009 84.7463 457.009 84.3102C457.009 83.8742 457.364 83.5199 457.8 83.5199C458.236 83.5199 458.59 83.8742 458.59 84.3102Z" fill="#22343D"/>
<path fill-rule="evenodd" clip-rule="evenodd" d="M452.123 81.9808C452.123 82.4168 451.769 82.7711 451.333 82.7711C450.896 82.7711 450.544 82.4168 450.544 81.9808C450.544 81.5447 450.896 81.1904 451.333 81.1904C451.769 81.1904 452.123 81.5447 452.123 81.9808Z" fill="#22343D"/>
<path fill-rule="evenodd" clip-rule="evenodd" d="M461.129 82.2051C460.885 82.3086 460.413 81.7377 459.699 81.2757C459 80.7934 458.292 80.5767 458.293 80.3124C458.27 80.0589 459.259 79.8532 460.22 80.4977C461.182 81.1381 461.373 82.1288 461.129 82.2051Z" fill="#775298"/>
<path fill-rule="evenodd" clip-rule="evenodd" d="M449.732 78.3707C449.715 78.124 450.564 77.8134 451.701 77.8433C452.858 77.8679 453.712 78.4293 453.593 78.6636C453.484 78.9007 452.679 78.7986 451.664 78.7795C450.643 78.7495 449.748 78.6391 449.732 78.3707Z" fill="#775298"/>
<path fill-rule="evenodd" clip-rule="evenodd" d="M453.293 321.662C453.293 321.662 457.442 336.389 461.726 335.183C466.01 333.979 462.789 313.425 462.789 313.425L458.515 306.669C458.515 306.669 462.53 341.074 453.293 321.662Z" fill="#22343D"/>
<path fill-rule="evenodd" clip-rule="evenodd" d="M505.613 240.014C505.613 240.014 508.629 236.722 512.287 236.174C515.945 235.625 529.02 234.07 530.94 235.808C532.861 237.545 520.343 243.37 520.343 243.37C520.343 243.37 524.704 240.591 522.893 239.558C519.693 237.728 505.613 240.014 505.613 240.014Z" fill="#22343D"/>
<path fill-rule="evenodd" clip-rule="evenodd" d="M500.425 243.957L504.518 252.268L506.752 251.028L501.293 242.841L500.425 243.957Z" fill="#22343D"/>
<path fill-rule="evenodd" clip-rule="evenodd" d="M454.653 300.149L444.605 309.205L447.583 311.686L456.017 302.506L454.653 300.149Z" fill="#22343D"/>
<path fill-rule="evenodd" clip-rule="evenodd" d="M244.587 209.993C241.729 202.902 240.631 195.007 236.367 188.661C230.231 179.53 218.446 174.999 213.467 165.188C211.352 161.021 210.689 156.255 210.667 151.582C210.626 142.338 213.394 132.511 220.534 126.636C228.738 119.886 241.048 119.98 250.657 124.515C260.263 129.05 267.604 137.281 273.845 145.879C280.087 154.476 285.551 163.703 292.819 171.451C298.208 177.196 304.6 182.15 308.659 188.899C319.788 207.403 308.338 230.814 288.692 237.492C271.429 243.358 250.559 224.818 244.587 209.993Z" fill="#22343D"/>
<path fill-rule="evenodd" clip-rule="evenodd" d="M219.994 340.493C221.702 341.898 219.838 340.925 222.324 342.544C221.769 348.753 216.026 352.665 216.026 352.665C216.026 352.665 215.783 362.551 213.938 362.348C212.089 362.148 213.273 352.829 213.273 352.829C213.273 352.829 209.492 362.566 207.892 361.946C206.294 361.329 212.082 350.155 212.082 350.155C212.082 350.155 203.969 361.322 202.855 359.562C201.742 357.802 208.88 347.027 208.88 347.027C208.88 347.027 200.066 356.268 199.069 354.772C198.075 353.28 209.589 340.427 209.589 340.427C204.26 340.369 204.637 336.741 204.637 336.741L217.617 337.511C217.617 337.511 219.208 339.844 219.994 340.493Z" fill="#FFC6B2"/>
<path fill-rule="evenodd" clip-rule="evenodd" d="M343.997 154.045C346.219 154.435 344.495 153.699 347.377 154.537C352.11 150.236 351.482 143.479 351.482 143.479C351.482 143.479 359.421 137.113 358.105 135.869C356.78 134.622 349.893 141.33 349.893 141.33C349.893 141.33 355.497 132.428 353.99 131.627C352.485 130.827 346.957 142.121 346.957 142.121C346.957 142.121 351.024 129.103 348.885 129.376C346.751 129.65 342.392 141.694 342.392 141.694C342.392 141.694 344.442 129.364 342.598 129.558C340.753 129.752 337.769 145.906 337.769 145.906C333.422 142.369 330.38 144.633 330.38 144.633L339.893 153.962C339.893 153.962 342.977 153.868 343.997 154.045Z" fill="#FFC6B2"/>
<path fill-rule="evenodd" clip-rule="evenodd" d="M289.657 208.035C293.672 207.409 305.918 215.345 302.802 231.461C302.541 232.814 300.774 235.792 300.334 237.024C299.778 238.584 304.11 244.295 304.11 244.295L292.927 247.868C292.45 244.49 293.253 239.553 289.639 238.086C288.287 237.537 286.84 237.189 285.565 236.493C282.121 234.612 280.283 230.498 278.869 227.131C277.813 224.615 277.009 221.908 277.039 219.178C277.112 212.302 283.202 209.044 289.657 208.035Z" fill="#FFC6B2"/>
<path fill-rule="evenodd" clip-rule="evenodd" d="M312.051 252.173C312.051 246.372 310.211 244.158 304.123 244.158C298.035 244.158 289.998 246.372 289.998 252.173C289.998 257.975 294.297 265.235 300.388 265.235C306.475 265.235 312.051 257.975 312.051 252.173Z" fill="#FFC6B2"/>
<path fill-rule="evenodd" clip-rule="evenodd" d="M307.243 241.346C307.243 241.346 326.174 221.828 329.96 202.707C333.748 183.588 340.183 152.563 340.183 152.563L347.377 154.537C347.377 154.537 350.786 196.936 347.377 203.429C343.971 209.924 324.658 255.017 325.037 266.56L307.243 241.346Z" fill="#FFC6B2"/>
<path fill-rule="evenodd" clip-rule="evenodd" d="M273.498 250.797C273.498 250.797 267.061 251.879 257.216 274.247C247.371 296.613 217.08 338.252 217.08 338.252L222.003 342.786C222.003 342.786 251.536 320.782 257.216 307.435C262.894 294.088 270.088 277.494 273.498 278.213C276.904 278.937 291.293 259.093 273.498 250.797Z" fill="#FFC6B2"/>
<path fill-rule="evenodd" clip-rule="evenodd" d="M324.18 269.542L332.994 245.213C332.994 245.213 331.634 233.802 314.237 229.711L304.381 243.911L324.18 269.542Z" fill="#FF7B5B"/>
<path fill-rule="evenodd" clip-rule="evenodd" d="M276.436 248.93C276.436 248.93 266.037 249.806 257.608 268.32C257.608 268.32 266.878 281.118 273.659 281.55C273.659 281.55 298.847 260.02 276.436 248.93Z" fill="#FF7B5B"/>
<path fill-rule="evenodd" clip-rule="evenodd" d="M305.01 468.487C305.01 468.487 289.998 499.143 288.243 493.467C286.491 487.789 287.07 474.155 288.01 472.209C288.954 470.262 295.092 461.663 295.092 461.663L305.01 468.487Z" fill="#FFC6B2"/>
<path fill-rule="evenodd" clip-rule="evenodd" d="M306.157 322.747L319.885 317.498C319.885 317.498 360.628 389.483 360.459 409.455C360.29 429.425 304.502 469.413 304.502 469.413L295.091 461.663C295.091 461.663 321.534 422.785 330.741 412.696C335.346 407.65 302.384 382.923 297.391 359.132C292.399 335.34 306.157 322.747 306.157 322.747Z" fill="#654287"/>
<path fill-rule="evenodd" clip-rule="evenodd" d="M223.615 452.429C223.615 452.429 195.534 473.127 196.702 467.318C197.874 461.504 204.943 449.638 206.716 448.318C208.492 447 218.079 442.034 218.079 442.034L223.615 452.429Z" fill="#FFC6B2"/>
<path fill-rule="evenodd" clip-rule="evenodd" d="M268.806 348.237L309.423 324.698C309.423 324.698 311.035 406.467 301.284 424.147C291.535 441.827 222.719 453.028 222.719 453.028L218.079 442.035C218.079 442.035 260.535 416.739 273.57 411.788C286.606 406.835 268.806 348.237 268.806 348.237Z" fill="#775298"/>
<path fill-rule="evenodd" clip-rule="evenodd" d="M292.996 308.596C292.996 308.596 263.089 319.185 268.807 348.238C274.523 377.289 284.052 382.736 284.052 382.736L301.203 354.593L318.422 317.738L301.203 315.553L292.996 308.596Z" fill="#775298"/>
<path fill-rule="evenodd" clip-rule="evenodd" d="M307.243 241.346C307.243 241.346 329.261 253.686 329.261 281.57C329.261 281.57 326.464 313.359 321.93 320.304C321.93 320.304 314.561 322.104 305.373 320.304C295.74 318.418 286.417 311.647 286.417 311.647L278.892 272.728L273.038 250.003L276.212 248.957L292.772 247.137C292.772 247.137 290.393 271.875 308.883 259.591C312.778 257.003 304.035 244.104 304.035 244.104L307.243 241.346Z" fill="#FF7B5B"/>
<path fill-rule="evenodd" clip-rule="evenodd" d="M320.72 135.978L366.885 162.909L392.854 113.857L349.573 89.8119L320.72 135.978Z" fill="white"/>
<path fill-rule="evenodd" clip-rule="evenodd" d="M384.944 370.786L417.961 350.347L390.683 302.732L360.501 322.303L384.944 370.786Z" fill="white"/>
<path fill-rule="evenodd" clip-rule="evenodd" d="M222.376 167.89C222.463 167.812 223.482 168.738 225.094 170.625C226.699 172.515 228.889 175.389 231.087 179.267C233.293 183.129 235.476 188.029 237.035 193.716C238.648 199.362 239.73 205.707 242.21 211.82C243.497 214.84 245.058 217.651 246.915 220.136C248.788 222.605 250.866 224.772 253.006 226.662C257.377 230.341 261.957 232.872 266.038 234.334C270.115 235.816 273.607 236.481 276.035 236.72C278.461 236.988 279.831 237.028 279.833 237.187C279.84 237.287 278.473 237.495 275.982 237.447C273.493 237.428 269.869 236.953 265.602 235.585C261.331 234.236 256.506 231.739 251.892 227.98C249.629 226.047 247.43 223.81 245.449 221.239C243.484 218.652 241.824 215.696 240.477 212.53C237.893 206.141 236.872 199.739 235.369 194.169C233.935 188.579 231.94 183.769 229.923 179.899C227.919 176.018 225.929 173.076 224.519 171.071C223.1 169.069 222.269 167.984 222.376 167.89Z" fill="#22343D"/>
<path fill-rule="evenodd" clip-rule="evenodd" d="M279.094 136.383C279.434 136.331 279.763 140.875 282.306 147.597C283.576 150.945 285.464 154.797 288.177 158.659C289.533 160.592 291.093 162.497 292.859 164.396C294.613 166.302 296.523 168.238 298.329 170.41C301.949 174.794 304.44 179.532 306.785 183.714C309.114 187.937 310.968 191.954 311.911 195.547C312.895 199.129 312.952 202.213 312.64 204.258C312.315 206.313 311.804 207.354 311.719 207.326C311.557 207.283 311.821 206.184 311.914 204.193C311.995 202.205 311.741 199.308 310.641 195.922C309.579 192.522 307.667 188.69 305.281 184.557C302.858 180.426 300.346 175.783 296.887 171.605C295.151 169.515 293.268 167.586 291.504 165.632C289.729 163.687 288.116 161.662 286.755 159.636C284.024 155.579 282.201 151.536 281.059 148.041C279.891 144.547 279.394 141.599 279.158 139.567C278.925 137.531 278.988 136.392 279.094 136.383Z" fill="#22343D"/>
<path fill-rule="evenodd" clip-rule="evenodd" d="M293.247 225.553C293.23 225.422 293.982 225.302 294.692 224.468C294.855 224.276 295.02 223.995 295.017 223.832C295.013 223.656 294.891 223.351 294.679 223.175C294.46 222.979 294.216 222.883 293.895 222.916C293.562 222.941 293.157 223.105 292.629 223.184C291.471 223.338 290.567 222.684 289.973 222.154C289.363 221.597 288.897 221.032 288.549 220.525C287.857 219.504 287.642 218.767 287.748 218.712C287.87 218.647 288.287 219.257 289.068 220.113C289.458 220.538 289.95 221.026 290.53 221.496C291.103 221.953 291.803 222.368 292.502 222.258C292.873 222.21 293.305 222.037 293.831 222.002C294.366 221.949 294.962 222.195 295.289 222.563C295.636 222.939 295.831 223.382 295.79 223.907C295.686 224.444 295.402 224.694 295.166 224.929C294.148 225.82 293.215 225.674 293.247 225.553Z" fill="#FF7B5B"/>
<path fill-rule="evenodd" clip-rule="evenodd" d="M298.703 226.321L289.837 229.545C289.837 229.545 297.36 236.126 298.703 226.321Z" fill="white"/>
<path fill-rule="evenodd" clip-rule="evenodd" d="M288.952 225.772C289.306 226.445 288.782 227.418 287.78 227.944C286.779 228.471 285.68 228.354 285.326 227.681C284.972 227.009 285.496 226.036 286.498 225.509C287.499 224.981 288.598 225.099 288.952 225.772Z" fill="#FFB2A0"/>
<path fill-rule="evenodd" clip-rule="evenodd" d="M299.463 220.382C299.753 221.085 299.14 222.003 298.095 222.435C297.049 222.869 295.965 222.649 295.675 221.946C295.385 221.243 295.998 220.324 297.044 219.893C298.09 219.461 299.173 219.679 299.463 220.382Z" fill="#FFB2A0"/>
<path fill-rule="evenodd" clip-rule="evenodd" d="M290.099 238.321C290.099 238.321 293.065 238.925 296.847 237.981C296.847 237.981 294.983 239.792 291.937 240.213C291.937 240.213 291.254 238.951 290.099 238.321Z" fill="#FFA192"/>
<path fill-rule="evenodd" clip-rule="evenodd" d="M293.13 218.391C293.462 218.673 293.503 219.172 293.221 219.504C292.939 219.837 292.441 219.878 292.108 219.596C291.775 219.315 291.734 218.816 292.016 218.482C292.298 218.15 292.797 218.109 293.13 218.391Z" fill="#22343D"/>
<path fill-rule="evenodd" clip-rule="evenodd" d="M287.172 221.819C287.504 222.101 287.545 222.6 287.263 222.932C286.982 223.265 286.483 223.305 286.15 223.023C285.817 222.741 285.776 222.244 286.058 221.91C286.34 221.578 286.839 221.537 287.172 221.819Z" fill="#22343D"/>
<path fill-rule="evenodd" clip-rule="evenodd" d="M293.165 215.093C293.086 215.346 292.346 215.337 291.533 215.583C290.712 215.804 290.09 216.205 289.888 216.032C289.679 215.887 290.162 214.999 291.275 214.683C292.386 214.362 293.264 214.858 293.165 215.093Z" fill="#22343D"/>
<path fill-rule="evenodd" clip-rule="evenodd" d="M282.872 221.309C282.673 221.162 282.985 220.314 283.743 219.467C284.509 218.6 285.49 218.311 285.592 218.553C285.702 218.788 285.104 219.337 284.432 220.099C283.751 220.858 283.087 221.471 282.872 221.309Z" fill="#22343D"/>
<path fill-rule="evenodd" clip-rule="evenodd" d="M279.528 227.893C279.528 227.893 276.684 225.504 275.319 227.665C273.955 229.826 281.462 230.964 281.462 230.964L279.528 227.893Z" fill="#FFC6B2"/>
<path fill-rule="evenodd" clip-rule="evenodd" d="M211.15 445.702C211.15 445.702 207.073 447.475 206.01 448.539C204.946 449.602 195.197 466.441 196.438 468.568C197.679 470.695 207.456 463.475 207.456 463.475C207.456 463.475 199.275 465.024 211.15 445.702Z" fill="#775298"/>
<path fill-rule="evenodd" clip-rule="evenodd" d="M290.706 467.97C290.706 467.97 287.81 471.1 287.363 472.537C286.916 473.972 286.117 493.414 288.205 494.72C290.293 496.026 296 485.298 296 485.298C296 485.298 289.177 490.643 290.706 468.015" fill="#775298"/>
</svg>
